<mxfile host="app.diagrams.net" agent="Mozilla/5.0 (Windows NT 10.0; Win64; x64) AppleWebKit/537.36 (KHTML, like Gecko) Chrome/131.0.0.0 Safari/537.36" version="26.0.2">
  <diagram name="Page-1" id="13e1069c-82ec-6db2-03f1-153e76fe0fe0">
    <mxGraphModel dx="880" dy="434" grid="1" gridSize="10" guides="1" tooltips="1" connect="1" arrows="1" fold="1" page="1" pageScale="1" pageWidth="1100" pageHeight="850" background="none" math="0" shadow="0">
      <root>
        <mxCell id="0" />
        <mxCell id="1" parent="0" />
        <mxCell id="7baba1c4bc27f4b0-2" value="Login" style="shape=umlLifeline;perimeter=lifelinePerimeter;whiteSpace=wrap;html=1;container=1;collapsible=0;recursiveResize=0;outlineConnect=0;rounded=1;shadow=0;comic=0;labelBackgroundColor=none;strokeWidth=1;fontFamily=Verdana;fontSize=12;align=center;" parent="1" vertex="1">
          <mxGeometry x="310" y="173" width="100" height="569" as="geometry" />
        </mxCell>
        <mxCell id="7baba1c4bc27f4b0-10" value="" style="html=1;points=[];perimeter=orthogonalPerimeter;rounded=0;shadow=0;comic=0;labelBackgroundColor=none;strokeWidth=1;fontFamily=Verdana;fontSize=12;align=center;" parent="7baba1c4bc27f4b0-2" vertex="1">
          <mxGeometry x="45" y="100" width="10" height="410" as="geometry" />
        </mxCell>
        <mxCell id="7baba1c4bc27f4b0-3" value="Sistem" style="shape=umlLifeline;perimeter=lifelinePerimeter;whiteSpace=wrap;html=1;container=1;collapsible=0;recursiveResize=0;outlineConnect=0;rounded=1;shadow=0;comic=0;labelBackgroundColor=none;strokeWidth=1;fontFamily=Verdana;fontSize=12;align=center;" parent="1" vertex="1">
          <mxGeometry x="510" y="172" width="100" height="570" as="geometry" />
        </mxCell>
        <mxCell id="7baba1c4bc27f4b0-13" value="" style="html=1;points=[];perimeter=orthogonalPerimeter;rounded=0;shadow=0;comic=0;labelBackgroundColor=none;strokeWidth=1;fontFamily=Verdana;fontSize=12;align=center;" parent="7baba1c4bc27f4b0-3" vertex="1">
          <mxGeometry x="45" y="120" width="10" height="390" as="geometry" />
        </mxCell>
        <mxCell id="raDrf5Sl8JtyqfNCYd6r-22" style="edgeStyle=orthogonalEdgeStyle;rounded=0;orthogonalLoop=1;jettySize=auto;html=1;dashed=1;entryX=0.99;entryY=0.992;entryDx=0;entryDy=0;entryPerimeter=0;" parent="7baba1c4bc27f4b0-3" target="7baba1c4bc27f4b0-10" edge="1">
          <mxGeometry relative="1" as="geometry">
            <mxPoint x="45" y="507.48275862068976" as="sourcePoint" />
            <mxPoint x="-140" y="508" as="targetPoint" />
          </mxGeometry>
        </mxCell>
        <mxCell id="7baba1c4bc27f4b0-4" value="Database" style="shape=umlLifeline;perimeter=lifelinePerimeter;whiteSpace=wrap;html=1;container=1;collapsible=0;recursiveResize=0;outlineConnect=0;rounded=1;shadow=0;comic=0;labelBackgroundColor=none;strokeWidth=1;fontFamily=Verdana;fontSize=12;align=center;" parent="1" vertex="1">
          <mxGeometry x="675" y="172" width="98.28" height="570" as="geometry" />
        </mxCell>
        <mxCell id="7baba1c4bc27f4b0-5" value="Hal Utama" style="shape=umlLifeline;perimeter=lifelinePerimeter;whiteSpace=wrap;html=1;container=1;collapsible=0;recursiveResize=0;outlineConnect=0;rounded=1;shadow=0;comic=0;labelBackgroundColor=none;strokeWidth=1;fontFamily=Verdana;fontSize=12;align=center;" parent="1" vertex="1">
          <mxGeometry x="863" y="172" width="98.28" height="570" as="geometry" />
        </mxCell>
        <mxCell id="raDrf5Sl8JtyqfNCYd6r-14" value="" style="html=1;points=[];perimeter=orthogonalPerimeter;rounded=0;shadow=0;comic=0;labelBackgroundColor=none;strokeWidth=1;fontFamily=Verdana;fontSize=12;align=center;" parent="7baba1c4bc27f4b0-5" vertex="1">
          <mxGeometry x="44.14" y="290" width="10" height="220" as="geometry" />
        </mxCell>
        <mxCell id="raDrf5Sl8JtyqfNCYd6r-16" value="Menampilkan dashboard" style="text;html=1;align=center;verticalAlign=middle;resizable=0;points=[];autosize=1;strokeColor=none;fillColor=none;" parent="7baba1c4bc27f4b0-5" vertex="1">
          <mxGeometry x="-126" y="262" width="150" height="30" as="geometry" />
        </mxCell>
        <mxCell id="7baba1c4bc27f4b0-8" value="User" style="shape=umlLifeline;perimeter=lifelinePerimeter;whiteSpace=wrap;html=1;container=1;collapsible=0;recursiveResize=0;outlineConnect=0;rounded=1;shadow=0;comic=0;labelBackgroundColor=none;strokeWidth=1;fontFamily=Verdana;fontSize=12;align=center;" parent="1" vertex="1">
          <mxGeometry x="100" y="173" width="100" height="569" as="geometry" />
        </mxCell>
        <mxCell id="7baba1c4bc27f4b0-9" value="" style="html=1;points=[];perimeter=orthogonalPerimeter;rounded=0;shadow=0;comic=0;labelBackgroundColor=none;strokeWidth=1;fontFamily=Verdana;fontSize=12;align=center;" parent="7baba1c4bc27f4b0-8" vertex="1">
          <mxGeometry x="45" y="100" width="10" height="110" as="geometry" />
        </mxCell>
        <mxCell id="raDrf5Sl8JtyqfNCYd6r-8" value="" style="html=1;points=[];perimeter=orthogonalPerimeter;rounded=0;shadow=0;comic=0;labelBackgroundColor=none;strokeWidth=1;fontFamily=Verdana;fontSize=12;align=center;" parent="7baba1c4bc27f4b0-8" vertex="1">
          <mxGeometry x="45" y="310" width="10" height="110" as="geometry" />
        </mxCell>
        <mxCell id="raDrf5Sl8JtyqfNCYd6r-25" value="" style="html=1;points=[];perimeter=orthogonalPerimeter;rounded=0;shadow=0;comic=0;labelBackgroundColor=none;strokeWidth=1;fontFamily=Verdana;fontSize=12;align=center;" parent="7baba1c4bc27f4b0-8" vertex="1">
          <mxGeometry x="45" y="500" width="10" height="69" as="geometry" />
        </mxCell>
        <mxCell id="7baba1c4bc27f4b0-16" value="" style="html=1;points=[];perimeter=orthogonalPerimeter;rounded=0;shadow=0;comic=0;labelBackgroundColor=none;strokeWidth=1;fontFamily=Verdana;fontSize=12;align=center;" parent="1" vertex="1">
          <mxGeometry x="720" y="303" width="10" height="377" as="geometry" />
        </mxCell>
        <mxCell id="7baba1c4bc27f4b0-17" value="Data user user" style="html=1;verticalAlign=bottom;endArrow=block;labelBackgroundColor=none;fontFamily=Verdana;fontSize=12;edgeStyle=elbowEdgeStyle;elbow=vertical;" parent="1" source="7baba1c4bc27f4b0-13" target="7baba1c4bc27f4b0-16" edge="1">
          <mxGeometry x="0.0051" relative="1" as="geometry">
            <mxPoint x="620" y="303" as="sourcePoint" />
            <Array as="points">
              <mxPoint x="570" y="303" />
            </Array>
            <mxPoint as="offset" />
          </mxGeometry>
        </mxCell>
        <mxCell id="7baba1c4bc27f4b0-11" value="Isi Username, password" style="html=1;verticalAlign=bottom;endArrow=block;entryX=0;entryY=0;labelBackgroundColor=none;fontFamily=Verdana;fontSize=12;edgeStyle=elbowEdgeStyle;elbow=vertical;" parent="1" source="7baba1c4bc27f4b0-9" target="7baba1c4bc27f4b0-10" edge="1">
          <mxGeometry relative="1" as="geometry">
            <mxPoint x="220" y="273" as="sourcePoint" />
          </mxGeometry>
        </mxCell>
        <mxCell id="7baba1c4bc27f4b0-14" value="username, password" style="html=1;verticalAlign=bottom;endArrow=block;entryX=0;entryY=0;labelBackgroundColor=none;fontFamily=Verdana;fontSize=12;edgeStyle=elbowEdgeStyle;elbow=vertical;" parent="1" source="7baba1c4bc27f4b0-10" target="7baba1c4bc27f4b0-13" edge="1">
          <mxGeometry relative="1" as="geometry">
            <mxPoint x="370" y="283" as="sourcePoint" />
          </mxGeometry>
        </mxCell>
        <mxCell id="7baba1c4bc27f4b0-34" value="" style="html=1;points=[];perimeter=orthogonalPerimeter;rounded=0;shadow=0;comic=0;labelBackgroundColor=none;strokeWidth=1;fontFamily=Verdana;fontSize=12;align=center;fillColor=#bac8d3;strokeColor=#23445d;" parent="1" vertex="1">
          <mxGeometry x="725" y="349" width="10" height="50" as="geometry" />
        </mxCell>
        <mxCell id="7baba1c4bc27f4b0-35" value="" style="html=1;verticalAlign=bottom;endArrow=block;labelBackgroundColor=none;fontFamily=Verdana;fontSize=12;elbow=vertical;edgeStyle=orthogonalEdgeStyle;entryX=0.971;entryY=0.483;entryPerimeter=0;entryDx=0;entryDy=0;" parent="1" edge="1">
          <mxGeometry relative="1" as="geometry">
            <mxPoint x="730" y="316" as="sourcePoint" />
            <mxPoint x="734.71" y="372.81" as="targetPoint" />
            <Array as="points">
              <mxPoint x="785" y="316" />
              <mxPoint x="785" y="373" />
            </Array>
          </mxGeometry>
        </mxCell>
        <mxCell id="raDrf5Sl8JtyqfNCYd6r-1" value="" style="shape=umlActor;verticalLabelPosition=bottom;verticalAlign=top;html=1;outlineConnect=0;" parent="1" vertex="1">
          <mxGeometry x="135" y="99" width="30" height="60" as="geometry" />
        </mxCell>
        <mxCell id="raDrf5Sl8JtyqfNCYd6r-3" style="edgeStyle=orthogonalEdgeStyle;rounded=0;orthogonalLoop=1;jettySize=auto;html=1;dashed=1;entryX=1.006;entryY=0.505;entryDx=0;entryDy=0;entryPerimeter=0;exitX=0.029;exitY=0.262;exitDx=0;exitDy=0;exitPerimeter=0;" parent="1" source="7baba1c4bc27f4b0-16" edge="1">
          <mxGeometry relative="1" as="geometry">
            <mxPoint x="695" y="398.99999999999994" as="sourcePoint" />
            <mxPoint x="565.0600000000001" y="398.99999999999994" as="targetPoint" />
            <Array as="points">
              <mxPoint x="720" y="399" />
            </Array>
          </mxGeometry>
        </mxCell>
        <mxCell id="raDrf5Sl8JtyqfNCYd6r-4" value="username,password salah" style="text;html=1;align=center;verticalAlign=middle;resizable=0;points=[];autosize=1;strokeColor=none;fillColor=none;" parent="1" vertex="1">
          <mxGeometry x="565" y="369" width="160" height="30" as="geometry" />
        </mxCell>
        <mxCell id="raDrf5Sl8JtyqfNCYd6r-6" value="username,password salah" style="text;html=1;align=center;verticalAlign=middle;resizable=0;points=[];autosize=1;strokeColor=none;fillColor=none;" parent="1" vertex="1">
          <mxGeometry x="380" y="430" width="160" height="30" as="geometry" />
        </mxCell>
        <mxCell id="raDrf5Sl8JtyqfNCYd6r-2" value="Validasi data" style="text;html=1;align=center;verticalAlign=middle;resizable=0;points=[];autosize=1;strokeColor=none;fillColor=none;" parent="1" vertex="1">
          <mxGeometry x="784.28" y="329" width="90" height="30" as="geometry" />
        </mxCell>
        <mxCell id="raDrf5Sl8JtyqfNCYd6r-7" style="edgeStyle=orthogonalEdgeStyle;rounded=0;orthogonalLoop=1;jettySize=auto;html=1;dashed=1;entryX=1;entryY=0.357;entryDx=0;entryDy=0;entryPerimeter=0;exitX=-0.033;exitY=0.326;exitDx=0;exitDy=0;exitPerimeter=0;" parent="1" edge="1">
          <mxGeometry relative="1" as="geometry">
            <mxPoint x="554.6699999999998" y="460.1400000000001" as="sourcePoint" />
            <mxPoint x="365" y="460.3699999999999" as="targetPoint" />
          </mxGeometry>
        </mxCell>
        <mxCell id="raDrf5Sl8JtyqfNCYd6r-11" value="username,password salah" style="text;html=1;align=center;verticalAlign=middle;resizable=0;points=[];autosize=1;strokeColor=none;fillColor=none;" parent="1" vertex="1">
          <mxGeometry x="174" y="454" width="160" height="30" as="geometry" />
        </mxCell>
        <mxCell id="raDrf5Sl8JtyqfNCYd6r-12" style="edgeStyle=orthogonalEdgeStyle;rounded=0;orthogonalLoop=1;jettySize=auto;html=1;dashed=1;entryX=0.98;entryY=0.02;entryDx=0;entryDy=0;entryPerimeter=0;exitX=-0.071;exitY=0.517;exitDx=0;exitDy=0;exitPerimeter=0;" parent="1" source="7baba1c4bc27f4b0-10" target="raDrf5Sl8JtyqfNCYd6r-8" edge="1">
          <mxGeometry relative="1" as="geometry">
            <mxPoint x="348.66999999999985" y="483.1400000000001" as="sourcePoint" />
            <mxPoint x="159" y="483.3699999999999" as="targetPoint" />
            <Array as="points">
              <mxPoint x="349" y="485" />
            </Array>
          </mxGeometry>
        </mxCell>
        <mxCell id="raDrf5Sl8JtyqfNCYd6r-15" style="edgeStyle=orthogonalEdgeStyle;rounded=0;orthogonalLoop=1;jettySize=auto;html=1;entryX=0;entryY=0.011;entryDx=0;entryDy=0;entryPerimeter=0;" parent="1" target="raDrf5Sl8JtyqfNCYd6r-14" edge="1">
          <mxGeometry relative="1" as="geometry">
            <mxPoint x="730" y="464.47058823529414" as="sourcePoint" />
            <mxPoint x="883.8199999999999" y="464.26" as="targetPoint" />
          </mxGeometry>
        </mxCell>
        <mxCell id="raDrf5Sl8JtyqfNCYd6r-17" style="edgeStyle=orthogonalEdgeStyle;rounded=0;orthogonalLoop=1;jettySize=auto;html=1;entryX=0.96;entryY=0.714;entryDx=0;entryDy=0;entryPerimeter=0;dashed=1;" parent="1" source="raDrf5Sl8JtyqfNCYd6r-14" target="7baba1c4bc27f4b0-16" edge="1">
          <mxGeometry relative="1" as="geometry" />
        </mxCell>
        <mxCell id="raDrf5Sl8JtyqfNCYd6r-18" value="Menampilkan dashboard" style="text;html=1;align=center;verticalAlign=middle;resizable=0;points=[];autosize=1;strokeColor=none;fillColor=none;" parent="1" vertex="1">
          <mxGeometry x="750" y="550" width="150" height="30" as="geometry" />
        </mxCell>
        <mxCell id="raDrf5Sl8JtyqfNCYd6r-19" value="Menampilkan dashboard" style="text;html=1;align=center;verticalAlign=middle;resizable=0;points=[];autosize=1;strokeColor=none;fillColor=none;" parent="1" vertex="1">
          <mxGeometry x="570" y="600" width="150" height="30" as="geometry" />
        </mxCell>
        <mxCell id="raDrf5Sl8JtyqfNCYd6r-20" style="edgeStyle=orthogonalEdgeStyle;rounded=0;orthogonalLoop=1;jettySize=auto;html=1;entryX=0.967;entryY=0.854;entryDx=0;entryDy=0;entryPerimeter=0;dashed=1;" parent="1" target="7baba1c4bc27f4b0-13" edge="1">
          <mxGeometry relative="1" as="geometry">
            <mxPoint x="720" y="625.4827586206898" as="sourcePoint" />
            <mxPoint x="562.6599999999999" y="624.5099999999999" as="targetPoint" />
          </mxGeometry>
        </mxCell>
        <mxCell id="raDrf5Sl8JtyqfNCYd6r-21" value="Menampilkan dashboard" style="text;html=1;align=center;verticalAlign=middle;resizable=0;points=[];autosize=1;strokeColor=none;fillColor=none;" parent="1" vertex="1">
          <mxGeometry x="386" y="652" width="150" height="30" as="geometry" />
        </mxCell>
        <mxCell id="raDrf5Sl8JtyqfNCYd6r-23" style="edgeStyle=orthogonalEdgeStyle;rounded=0;orthogonalLoop=1;jettySize=auto;html=1;dashed=1;entryX=0.99;entryY=0.112;entryDx=0;entryDy=0;entryPerimeter=0;exitX=0.029;exitY=0.993;exitDx=0;exitDy=0;exitPerimeter=0;" parent="1" source="7baba1c4bc27f4b0-10" target="raDrf5Sl8JtyqfNCYd6r-25" edge="1">
          <mxGeometry relative="1" as="geometry">
            <mxPoint x="357" y="679.4827586206898" as="sourcePoint" />
            <mxPoint x="165" y="680" as="targetPoint" />
          </mxGeometry>
        </mxCell>
        <mxCell id="raDrf5Sl8JtyqfNCYd6r-24" value="Menampilkan dashboard" style="text;html=1;align=center;verticalAlign=middle;resizable=0;points=[];autosize=1;strokeColor=none;fillColor=none;" parent="1" vertex="1">
          <mxGeometry x="188" y="652" width="150" height="30" as="geometry" />
        </mxCell>
        <mxCell id="raDrf5Sl8JtyqfNCYd6r-26" value="Diagram Sequence" style="text;html=1;align=center;verticalAlign=middle;resizable=0;points=[];autosize=1;strokeColor=none;fillColor=none;fontStyle=1;fontSize=26;" parent="1" vertex="1">
          <mxGeometry x="455" y="43" width="250" height="40" as="geometry" />
        </mxCell>
      </root>
    </mxGraphModel>
  </diagram>
</mxfile>
